# xmcd CD database file
#
# Track frame offsets:
#	150
#	14752
#	29408
#	47083
#	65526
#	78603
#	88736
#	108550
#	127197
#	141618
#	155281
#	174655
#	190840
#	211463
#	229195
#	246081
#	266173
#	283375
#	301050
#
# Disc length: 4249 seconds
#
# Revision: 4
# Processed by: cddbd v1.5.2PL0 Copyright (c) Steve Scherf et al.
# Submitted via: CDex 1.51
#
DISCID=26109713
DTITLE=Various Artist - Rc81
DYEAR=2003
DGENRE=Country
TTITLE0=Brooks and Dunn - You Can't Take The Honky Tonk Out Of The Girl
TTITLE1=Scotty Emerick Wsg Toby Keith - I Can't Take You Anywhere
TTITLE2=Shania Twain - She's Not Just A Pretty Face
TTITLE3=Kenny Chesney - There Goes My Life (Edit)
TTITLE4=Terri Clark - I Wanna Do It All
TTITLE5=Tracy Byrd - Drinkin' Bone
TTITLE6=Tim Mcgraw - Watch The Wind Blow By
TTITLE7=Vince Gill - Young Man's Town
TTITLE8=Diamond Rio - Wrinkles
TTITLE9=Mchayes - It Doesn't Mean I Don't Love You
TTITLE10=Rodney Atkins - Honestly (Write Me A List)
TTITLE11=Jo Dee Messina - I Wish
TTITLE12=Alan Jackson - Remember When
TTITLE13=Mark Wills - And The Crowd Goes Wild
TTITLE14=Leeann Rimes - Suddenly
TTITLE15=Blake Shelton - Playboys of The Southwestern World
TTITLE16=Sheryl Crow (Country Ver.) - The First Cut Is The Deepest (Country Version)
TTITLE17=Brad Paisley - Little Moments
TTITLE18=Craig Morgan - Every Friday Afternoon
EXTD=YEAR: 2003
EXTT0=
EXTT1=
EXTT2=
EXTT3=
EXTT4=
EXTT5=
EXTT6=
EXTT7=
EXTT8=
EXTT9=
EXTT10=
EXTT11=
EXTT12=
EXTT13=
EXTT14=
EXTT15=
EXTT16=
EXTT17=
EXTT18=
PLAYORDER=
